<svg xmlns="http://www.w3.org/2000/svg" version="1.0" width="363" height="484" preserveAspectRatio="xMidYMid meet" style=""><rect id="backgroundrect" width="100%" height="100%" x="0" y="0" fill="none" stroke="none"/>
<metadata>
Created by potrace 1.15, written by Peter Selinger 2001-2017
</metadata>

<g class="currentLayer" style=""><title>Layer 1</title><g transform="translate(0,484) scale(0.10000000149011612,-0.10000000149011612) " fill="#000000" stroke="none" id="svg_1">
<path d="M1379 4456 c-2 -3 -60 -14 -128 -26 -68 -11 -138 -28 -155 -37 -41 -21 -166 -114 -190 -142 -11 -11 -24 -21 -30 -21 -20 0 -116 -166 -116 -200 0 -10 -4 -22 -10 -25 -5 -3 -10 -16 -10 -29 0 -12 -4 -26 -10 -32 -5 -5 -12 -34 -15 -64 -3 -30 -9 -57 -15 -60 -11 -7 -5 -169 9 -229 8 -38 7 -42 -18 -54 -27 -13 -38 -46 -25 -75 4 -9 9 -30 11 -45 7 -68 56 -97 97 -58 12 11 36 24 54 27 18 4 34 14 37 24 6 20 -23 121 -38 131 -9 6 12 80 35 121 23 41 50 67 64 61 8 -3 16 1 19 9 5 13 11 13 41 -1 l35 -16 -4 -157 c-4 -157 -4 -158 -31 -183 -18 -16 -39 -25 -61 -25 -53 0 -141 -37 -170 -72 l-26 -30 21 -18 c12 -10 39 -21 60 -25 43 -7 127 3 136 16 3 5 14 9 25 9 24 0 25 -27 2 -101 -9 -30 -17 -57 -17 -61 -1 -4 -9 -17 -18 -28 -10 -11 -18 -24 -18 -28 0 -4 -13 -22 -29 -41 -17 -19 -29 -37 -29 -40 2 -13 -17 -47 -34 -59 -10 -7 -18 -22 -18 -33 0 -10 -4 -19 -10 -19 -5 0 -17 -16 -26 -35 -9 -19 -23 -35 -30 -35 -8 0 -14 -6 -14 -13 0 -23 -83 -117 -158 -177 -24 -19 -66 -56 -94 -82 -29 -27 -55 -48 -60 -48 -5 0 -33 -18 -63 -40 -30 -22 -58 -40 -63 -40 -9 0 -22 -32 -22 -53 0 -28 190 -71 205 -47 4 6 14 10 25 10 23 0 158 70 232 121 32 21 62 39 68 39 5 0 10 3 10 8 0 4 15 13 33 21 17 8 35 19 39 25 5 7 8 6 8 -3 0 -8 -7 -22 -15 -31 -9 -9 -21 -44 -28 -76 -8 -38 -21 -68 -37 -84 -14 -14 -32 -37 -39 -52 -8 -16 -18 -28 -23 -28 -4 0 -8 -11 -8 -25 0 -27 36 -75 57 -75 12 0 18 -14 13 -35 -1 -5 -3 -17 -5 -25 -2 -8 -15 -51 -30 -95 -43 -130 -54 -218 -43 -364 4 -52 12 -81 27 -102 13 -17 17 -30 11 -34 -6 -4 -7 -11 -4 -17 4 -7 9 -6 14 1 5 8 28 -2 72 -32 36 -24 80 -49 97 -56 37 -16 38 -23 10 -62 -11 -16 -22 -36 -23 -44 -1 -8 -12 -26 -24 -40 -30 -34 -48 -109 -34 -140 9 -20 8 -25 -8 -30 -25 -8 -26 -35 -1 -35 10 0 29 8 42 18 26 19 74 42 89 42 6 0 10 -11 10 -25 0 -34 28 -33 32 2 5 42 23 37 23 -6 0 -30 -6 -44 -27 -60 -14 -12 -29 -21 -33 -21 -3 0 -26 -17 -51 -37 -66 -56 -57 -89 11 -38 24 19 34 22 38 13 3 -10 18 -6 56 14 l52 26 9 -24 c10 -25 36 -42 47 -30 4 4 -1 20 -11 37 l-18 30 36 33 c40 36 49 76 16 76 -11 0 -20 7 -20 16 0 8 4 13 9 10 5 -3 11 4 14 15 4 16 10 20 24 14 10 -4 28 -7 41 -6 12 0 22 -3 22 -9 0 -5 12 -15 27 -22 28 -14 51 -62 52 -110 1 -37 38 -39 47 -3 3 14 12 25 20 25 8 0 14 4 14 8 0 4 16 6 36 4 41 -5 54 7 54 51 0 20 6 30 20 34 11 3 20 11 20 17 0 12 22 33 56 52 10 6 20 21 22 33 3 18 -2 21 -29 21 -20 0 -42 -9 -56 -22 -27 -25 -44 -17 -18 8 11 11 16 28 13 50 -3 26 0 34 17 38 34 10 55 7 55 -8 0 -7 7 -19 15 -26 11 -9 18 -8 36 9 13 12 29 21 36 21 7 0 43 -29 78 -65 36 -36 70 -65 75 -65 5 0 22 -18 36 -40 15 -22 32 -40 39 -40 11 0 31 87 26 116 -1 6 6 17 14 24 13 11 19 10 35 -5 11 -10 20 -23 20 -29 0 -7 13 -27 28 -46 l28 -33 22 35 c12 19 22 47 22 62 0 26 1 26 24 11 13 -9 26 -25 29 -35 3 -11 12 -20 21 -20 21 0 36 40 36 95 0 41 -5 48 -90 134 -49 51 -90 94 -90 97 0 3 7 18 15 35 9 16 18 60 21 97 3 37 8 74 12 82 6 15 7 23 12 75 3 43 40 -131 47 -224 3 -47 8 -69 14 -60 5 8 9 10 10 4 5 -49 7 -59 17 -63 6 -2 20 -23 32 -47 12 -24 28 -49 37 -57 14 -11 15 -10 8 12 l-8 25 24 -20 c13 -11 29 -24 34 -30 10 -10 48 -29 147 -75 25 -11 52 -27 58 -35 14 -17 4 -56 -13 -49 -7 2 -22 -14 -35 -36 -25 -44 -47 -52 -49 -19 -2 28 -37 64 -76 80 -18 7 -40 19 -50 27 -27 24 -42 3 -28 -40 6 -18 10 -42 10 -53 -1 -11 4 -35 9 -53 9 -28 8 -34 -6 -38 -9 -3 -26 -10 -37 -16 -49 -27 -225 -55 -252 -40 -15 9 -8 12 34 18 29 3 61 13 70 21 16 13 15 14 -12 9 -16 -3 -71 -9 -120 -12 l-91 -7 -18 40 c-10 23 -39 56 -68 79 -27 21 -56 51 -64 67 -20 37 -40 34 -54 -9 -12 -36 -6 -124 9 -124 4 0 8 -6 8 -14 0 -10 -14 -12 -53 -10 -29 2 -56 -1 -59 -6 -4 -6 -13 -10 -21 -10 -8 0 -44 -13 -79 -30 -35 -16 -67 -30 -70 -30 -16 0 -130 -97 -156 -133 -34 -47 -36 -63 -10 -77 28 -14 28 -15 47 36 17 45 79 108 96 98 5 -3 15 0 23 6 12 10 16 9 21 -6 10 -28 45 -64 62 -64 9 0 12 -3 9 -7 -4 -3 20 -17 54 -31 34 -13 65 -20 69 -16 10 11 -5 98 -24 139 -30 63 -26 70 29 68 111 -3 274 -12 331 -19 l62 -6 6 -37 c6 -39 39 -79 120 -146 71 -58 81 -55 82 27 0 38 -6 86 -14 109 -17 53 -12 65 34 74 21 4 50 13 64 20 14 7 41 16 60 19 19 4 53 14 75 22 86 34 104 46 112 78 6 27 8 91 3 91 -1 0 -4 12 -6 27 -4 37 -27 59 -101 96 -48 24 -63 28 -63 17 0 -19 -4 -19 -42 1 l-31 16 26 17 c38 25 94 101 102 139 6 29 5 32 -18 32 -14 0 -39 -8 -56 -18 -25 -13 -33 -14 -39 -4 -10 15 -83 6 -94 -11 -10 -16 -38 11 -38 38 0 12 -3 25 -7 28 -3 4 -7 32 -8 62 -1 54 0 56 31 71 18 9 38 29 45 46 7 17 34 54 60 81 27 28 46 53 43 56 -12 12 -141 18 -175 8 -67 -18 -118 23 -118 93 0 46 -14 145 -21 150 -12 9 -26 250 -15 254 6 3 6 8 -1 13 -6 4 -15 19 -19 33 l-8 24 29 -19 c26 -17 108 -68 159 -98 11 -7 22 -15 25 -18 3 -3 32 -9 65 -12 39 -4 54 -3 45 3 -13 8 -12 10 3 10 9 0 17 -4 17 -10 0 -14 73 -25 78 -11 2 6 17 11 33 11 35 0 36 7 4 40 -54 55 -145 163 -145 171 0 5 -5 9 -11 9 -14 0 -28 15 -62 67 -30 48 -33 57 -14 50 19 -7 74 20 127 62 24 20 53 41 65 46 24 13 35 61 11 52 -8 -3 -61 1 -118 9 -73 11 -108 13 -120 5 -12 -8 -18 -6 -22 6 -5 11 -10 13 -17 6 -7 -7 -21 -1 -45 20 -27 25 -31 33 -20 39 40 23 58 213 20 225 -5 2 -25 -11 -44 -27 -19 -16 -38 -30 -42 -30 -5 0 -8 18 -8 39 0 22 -5 43 -10 46 -6 4 -7 11 -4 17 4 6 2 13 -3 17 -14 10 -42 91 -36 107 3 8 1 14 -4 14 -5 0 -9 12 -8 27 0 19 6 29 21 33 50 13 104 80 104 130 0 67 -60 100 -116 64 -25 -17 -25 -17 -20 7 3 13 8 68 10 122 4 87 7 99 28 117 12 11 25 19 28 20 3 0 14 13 23 29 28 48 14 107 -34 140 -23 16 -36 32 -33 40 5 16 -14 121 -26 136 -4 6 -13 33 -20 62 -8 29 -17 50 -20 48 -8 -5 -80 57 -80 68 0 5 10 5 23 2 19 -6 18 -3 -8 18 -34 28 -91 48 -147 52 -21 1 -44 8 -52 14 -36 30 -266 67 -287 47z m99 -83 c3 -65 -11 -100 -29 -71 -8 15 -13 16 -29 5 -16 -9 -24 -9 -40 1 -18 11 -20 10 -20 -8 0 -11 -7 -20 -15 -20 -8 0 -15 -4 -15 -10 0 -25 -30 -7 -38 23 -10 34 0 57 25 57 8 0 11 5 7 11 -3 6 -17 9 -30 6 -33 -6 -42 11 -10 19 13 3 26 14 29 24 4 16 16 20 78 22 41 2 76 2 79 1 3 0 6 -27 8 -60z m162 21 c33 -15 60 -31 60 -36 0 -4 8 -8 19 -8 10 0 24 -6 31 -14 6 -8 19 -12 27 -9 11 4 14 3 9 -6 -5 -8 -1 -14 13 -18 12 -3 21 -9 21 -13 0 -8 51 -34 63 -32 4 1 7 -9 7 -23 0 -14 4 -25 9 -25 16 0 23 -52 9 -62 -10 -8 -10 -11 0 -15 6 -2 12 -13 12 -23 0 -10 5 -22 10 -25 18 -11 11 -31 -15 -43 -17 -8 -23 -16 -18 -28 5 -14 3 -15 -15 -5 -29 15 -103 13 -126 -4 -24 -18 -39 -9 -26 16 7 13 7 19 0 19 -5 0 -10 -5 -10 -12 0 -6 -9 -3 -20 7 -11 10 -20 13 -20 7 0 -13 -66 -36 -79 -28 -5 4 -23 -7 -39 -23 -33 -34 -45 -31 -35 8 3 14 2 23 -2 19 -4 -4 -18 -2 -32 3 -20 7 -34 4 -67 -14 -36 -20 -44 -21 -66 -10 -33 17 -90 16 -132 -1 -32 -14 -38 -13 -80 8 -48 24 -48 24 -15 94 9 18 8 25 -2 32 -23 14 -88 -40 -107 -87 -10 -26 -23 -43 -33 -43 -9 0 -24 -9 -34 -20 -9 -11 -14 -20 -10 -20 3 0 -3 -10 -14 -22 -29 -32 -37 -66 -22 -94 16 -31 -1 -66 -53 -102 -26 -19 -36 -32 -32 -45 3 -10 -1 -20 -10 -23 -9 -3 -16 -12 -16 -19 0 -18 -39 -103 -50 -110 -6 -4 -7 6 -4 24 4 17 3 38 -1 48 -9 19 -11 34 -18 126 -3 31 -2 57 2 57 4 0 13 17 20 38 16 45 30 64 42 56 5 -3 9 0 9 5 0 6 -4 11 -10 11 -16 0 -12 19 10 50 12 16 17 35 14 45 -5 13 -9 14 -15 3 -7 -10 -9 -10 -9 3 0 14 9 27 50 76 5 7 10 18 10 25 0 12 45 61 103 113 15 13 27 29 27 36 0 30 120 119 161 119 15 0 29 6 32 13 2 6 7 9 11 5 4 -3 2 -16 -4 -28 -11 -21 -10 -22 24 -17 36 5 49 -6 21 -17 -29 -11 -16 -28 15 -21 22 5 30 3 30 -7 0 -8 6 -26 13 -41 10 -22 19 -27 49 -27 20 0 38 -6 41 -12 3 -9 11 -5 24 11 18 22 20 22 36 7 16 -16 18 -16 27 8 5 14 16 26 24 26 15 0 38 52 31 73 -2 7 -6 27 -9 46 l-6 34 40 -6 c22 -3 67 -18 100 -33z m226 -410 c19 -9 34 -22 34 -29 0 -20 23 -24 38 -6 10 12 15 13 18 4 8 -18 27 -16 20 2 -7 20 28 20 48 -1 18 -17 22 -54 5 -54 -5 0 -7 -5 -4 -11 4 -6 13 -8 21 -5 23 9 26 -12 4 -31 -11 -10 -20 -23 -20 -29 0 -21 -32 -25 -53 -7 -11 10 -18 13 -14 8 3 -6 2 -17 -3 -25 -7 -12 -12 -12 -22 -2 -9 9 -9 15 -1 23 9 9 7 16 -5 29 -22 22 -50 32 -58 19 -3 -6 3 -13 15 -16 25 -6 28 -38 4 -47 -56 -20 -73 -23 -78 -16 -2 4 -17 5 -32 2 -22 -4 -32 1 -55 29 -21 25 -28 29 -28 15 0 -28 -21 -41 -83 -54 -67 -13 -101 -4 -110 30 -6 23 -7 22 -35 -11 -19 -23 -43 -38 -74 -46 -49 -12 -68 -6 -81 29 -9 22 -47 16 -91 -16 l-28 -20 -29 21 c-35 26 -41 26 -57 1 -7 -11 -19 -20 -28 -20 -8 0 -12 5 -9 10 3 6 -1 13 -11 17 -11 4 -23 -1 -36 -16 -10 -13 -18 -18 -18 -12 0 6 -7 8 -17 4 -14 -5 -15 -1 -11 35 6 39 4 41 -23 47 -39 9 -44 20 -20 53 20 28 59 38 74 18 4 -7 10 -6 17 4 15 22 12 30 -7 23 -16 -6 -16 -5 -4 10 7 9 17 14 23 11 5 -3 20 1 33 10 36 24 62 20 87 -14 26 -35 39 -37 56 -10 7 11 19 20 27 20 8 0 15 5 15 11 0 15 87 6 103 -11 9 -9 8 -14 -5 -24 -24 -18 -23 -36 3 -36 24 0 79 30 79 43 0 4 4 6 9 2 5 -3 13 0 17 7 5 8 10 6 15 -8 7 -17 8 -17 8 -1 1 21 17 23 25 2 8 -21 32 -19 53 4 20 22 64 41 94 41 11 0 33 -14 49 -31 27 -31 50 -32 50 -4 0 13 44 44 63 45 5 0 24 -7 43 -16z m-120 -204 c35 -14 127 -15 149 -2 11 6 25 5 41 -2 23 -11 24 -14 24 -137 0 -138 8 -161 49 -140 16 9 22 8 30 -8 13 -24 -7 -43 -48 -45 -16 -1 -33 -4 -36 -8 -4 -3 -21 9 -38 28 -27 30 -42 36 -95 44 -76 11 -130 3 -145 -20 -10 -17 -13 -17 -46 5 -30 18 -48 22 -106 20 -38 -2 -73 -3 -76 -4 -3 -1 -22 -17 -43 -37 -20 -19 -41 -32 -46 -29 -6 3 -10 1 -10 -4 0 -6 -11 -11 -25 -11 -14 0 -25 6 -25 13 0 18 21 37 41 37 9 0 19 9 22 19 6 24 0 31 -25 31 -16 0 -18 10 -18 100 l0 100 38 0 c21 0 61 11 89 25 47 24 52 24 79 10 39 -20 90 -18 139 4 49 24 47 23 81 11z m-450 -54 c-3 -11 -6 -59 -7 -106 -1 -80 -3 -86 -31 -110 -22 -20 -30 -36 -35 -77 -5 -50 -4 -53 32 -86 38 -35 38 -35 30 -88 -5 -30 -9 -75 -9 -101 -1 -38 -5 -48 -18 -48 -9 0 -20 5 -23 10 -4 6 -22 17 -42 25 -20 9 -55 32 -78 53 -23 20 -49 42 -58 47 -22 13 -24 102 -7 265 7 69 14 143 14 165 2 31 8 42 31 56 25 16 31 16 49 3 31 -22 113 -19 128 5 15 25 31 16 24 -13z m464 -236 c0 -6 6 -10 13 -9 29 4 47 -2 66 -22 11 -12 24 -18 30 -14 6 3 24 -4 39 -17 20 -17 26 -30 24 -51 -3 -20 -8 -27 -18 -23 -8 3 -37 1 -64 -5 -47 -10 -52 -9 -104 23 -73 44 -85 93 -28 115 36 15 42 15 42 3z m-130 -24 c11 -21 10 -27 -4 -41 -9 -9 -16 -21 -16 -26 0 -5 -7 -9 -15 -9 -8 0 -15 -4 -15 -8 0 -11 -113 -67 -125 -63 -5 2 -27 3 -47 2 -25 -1 -50 7 -76 23 -22 14 -42 22 -46 19 -3 -3 -10 7 -16 22 -13 33 -4 47 14 23 11 -14 19 -16 46 -8 18 5 37 7 41 4 4 -2 25 12 45 33 20 21 33 30 30 21 -7 -24 15 -23 46 1 22 18 50 26 104 30 13 0 26 -8 34 -23z m181 -159 c29 -7 44 -35 54 -101 4 -25 11 -49 16 -52 5 -3 9 -16 9 -29 0 -13 5 -27 10 -30 27 -17 -1 -197 -35 -225 -8 -7 -15 -21 -15 -32 0 -17 3 -18 15 -8 8 7 15 8 15 2 0 -14 -25 -33 -33 -25 -4 3 -7 -3 -7 -14 0 -12 -7 -24 -16 -27 -8 -3 -13 -10 -9 -15 3 -5 -5 -17 -17 -25 -12 -9 -19 -16 -15 -16 5 0 5 -5 1 -11 -4 -8 -9 -8 -13 -1 -4 6 -22 -4 -45 -24 -21 -19 -46 -34 -56 -34 -10 0 -31 -7 -47 -16 -38 -21 -84 -6 -76 25 6 23 19 28 26 9 3 -9 10 -8 26 6 29 27 26 33 -14 28 -27 -3 -35 -1 -35 12 0 9 7 16 15 16 20 0 19 26 -1 34 -26 10 -42 7 -59 -11 -14 -14 -16 -28 -11 -78 5 -55 4 -64 -15 -81 -29 -26 -47 -65 -43 -91 4 -21 0 -23 -40 -23 -26 0 -46 5 -49 13 -2 7 -5 66 -6 132 -1 65 -4 122 -7 126 -6 10 -6 270 0 276 3 3 21 -4 41 -16 20 -11 42 -21 50 -21 19 0 118 -52 133 -70 27 -33 63 -121 69 -169 3 -29 10 -48 15 -45 11 7 3 100 -13 152 -6 17 -16 32 -24 32 -12 0 -30 27 -27 42 1 4 -17 20 -40 34 -24 15 -49 33 -56 41 -7 7 -22 13 -31 13 -10 0 -24 6 -30 14 -6 7 -25 16 -41 19 -44 9 -58 40 -65 153 -7 89 -5 101 9 101 11 0 16 -10 17 -34 2 -45 3 -50 12 -59 4 -4 8 -17 9 -28 1 -12 4 8 7 44 l6 65 63 -2 c50 -2 73 2 111 22 40 20 59 23 110 20 33 -3 60 -1 60 3 -4 21 4 22 34 4 17 -11 44 -22 58 -25z m-885 17 c24 -4 29 -11 29 -34 0 -16 -7 -37 -16 -46 -25 -24 -97 -29 -144 -9 l-40 16 35 30 c19 16 49 33 65 38 39 12 38 12 71 5z m145 -144 c23 -13 24 -26 4 -46 -8 -9 -15 -24 -15 -34 0 -10 -4 -22 -10 -25 -6 -4 -5 -19 5 -41 7 -18 12 -34 9 -34 -3 0 1 -10 8 -22 12 -23 14 -29 17 -47 2 -13 53 14 77 41 19 21 29 43 48 101 6 18 8 17 43 -4 21 -12 40 -24 43 -26 2 -3 6 -132 7 -289 l2 -284 -56 0 c-56 0 -199 -34 -218 -51 -14 -14 -28 -11 -22 5 3 8 0 20 -8 26 -7 6 -17 30 -20 53 -4 23 -13 49 -19 59 -8 15 -8 21 3 28 12 7 12 12 3 23 -7 8 -10 21 -7 29 3 8 10 46 15 84 5 38 11 80 13 94 22 123 37 228 43 293 3 42 8 77 11 77 2 0 13 -5 24 -10z m-113 -247 c-5 -37 -14 -78 -21 -91 -8 -16 -8 -25 -1 -30 22 -14 -14 -242 -38 -242 -4 0 -8 -6 -8 -12 -1 -7 -15 -24 -32 -38 -17 -14 -43 -36 -57 -49 -79 -72 -133 -107 -156 -102 -5 1 -14 -4 -20 -12 -22 -31 -165 -87 -219 -87 -43 0 -111 25 -111 41 0 7 15 16 33 20 35 7 85 46 77 60 -3 4 4 10 15 14 11 3 20 11 20 16 0 5 5 9 11 9 30 0 279 228 279 256 0 7 7 14 15 18 8 3 15 11 15 18 0 7 9 19 20 26 11 6 26 28 34 47 8 19 35 56 60 83 25 27 43 52 39 55 -3 4 0 7 7 7 7 0 11 3 7 6 -8 9 22 66 32 60 4 -3 4 -36 -1 -73z m988 -61 c11 -8 37 -144 38 -204 1 -20 7 -43 14 -49 15 -16 15 -16 12 103 -2 120 2 137 35 130 13 -2 27 -13 30 -23 4 -11 10 -17 14 -14 10 6 27 -29 41 -82 6 -23 17 -49 25 -57 8 -8 15 -19 15 -25 0 -5 6 -14 13 -18 16 -11 107 -129 107 -140 0 -5 14 -23 30 -41 17 -18 30 -41 31 -50 0 -11 2 -13 6 -4 4 10 9 9 24 -4 10 -9 19 -13 19 -9 0 5 11 -2 25 -15 14 -13 25 -27 25 -32 0 -4 -41 -8 -90 -8 -88 0 -130 11 -166 44 -7 6 -31 24 -53 40 -23 17 -41 33 -41 38 0 4 -7 8 -15 8 -8 0 -15 4 -15 10 0 5 -12 16 -27 24 -16 8 -27 17 -25 20 8 21 0 86 -11 86 -8 0 -12 -14 -12 -40 0 -22 -3 -40 -7 -40 -5 0 -8 -9 -8 -20 0 -19 -7 -20 -112 -21 -131 -1 -112 -16 22 -18 93 -1 94 -10 5 -35 -81 -24 -173 -27 -238 -9 -52 14 -58 18 -52 37 14 47 17 96 7 109 -16 19 -2 34 44 46 22 6 49 19 58 30 9 10 30 21 46 24 30 7 80 53 80 75 0 7 10 23 21 35 12 12 30 41 41 65 19 43 25 47 44 34z m-632 -494 c11 -60 -2 -311 -24 -453 -11 -77 -23 -156 -25 -175 -13 -117 -17 -147 -25 -165 -5 -11 -17 -47 -26 -80 -9 -33 -20 -64 -24 -70 -5 -5 -12 -26 -17 -45 -8 -32 -12 -35 -52 -38 -27 -2 -57 4 -82 16 -23 12 -40 15 -42 9 -5 -15 -37 2 -111 57 -64 49 -75 76 -69 167 4 55 2 83 -7 93 -28 34 -7 271 31 351 6 12 11 27 12 35 2 8 6 21 11 29 5 8 3 16 -5 22 -10 6 -10 9 -2 9 7 0 10 7 6 17 -4 11 -3 14 5 9 7 -4 12 -3 12 3 0 5 -4 11 -10 13 -29 10 39 111 95 141 50 26 98 47 121 53 20 5 24 1 29 -30 4 -20 11 -36 16 -36 5 0 9 -7 9 -16 0 -9 6 -14 13 -11 8 3 23 -12 38 -39 13 -24 27 -44 30 -44 4 0 10 18 14 41 4 22 13 43 20 45 11 5 32 95 27 117 -1 4 4 7 12 7 8 0 16 -14 20 -32z m76 22 c0 -6 35 -10 86 -10 66 0 97 -5 136 -22 32 -13 53 -18 55 -12 2 7 18 8 40 5 32 -5 38 -11 51 -51 16 -47 87 -145 105 -145 6 0 18 14 27 30 8 17 18 32 21 35 13 10 26 76 18 95 -13 35 -10 41 33 52 24 6 44 11 44 10 4 -4 16 -195 19 -294 2 -59 4 -116 4 -126 1 -10 6 -15 11 -12 6 4 8 10 5 15 -3 5 -1 11 3 14 5 3 7 17 4 31 -2 14 0 25 6 25 12 0 22 -82 19 -150 -1 -31 2 -44 11 -43 13 3 16 -9 5 -20 -3 -4 -8 -44 -9 -89 -2 -46 -9 -122 -15 -170 -14 -104 -38 -140 -114 -169 -55 -21 -102 -26 -75 -9 12 8 11 10 -5 10 -11 0 -29 -6 -40 -14 -58 -39 -297 -94 -400 -91 -102 3 -195 16 -195 26 0 5 -9 9 -19 9 -29 0 -32 24 -5 56 13 16 23 35 24 42 0 6 9 12 21 12 11 0 18 -4 15 -9 -10 -15 4 -39 25 -44 10 -3 19 -3 19 -1 0 10 -35 60 -48 67 -15 10 -15 104 1 124 5 7 7 18 4 25 -2 7 0 21 5 31 6 11 5 17 -2 17 -6 0 -8 5 -4 12 4 7 9 33 10 60 1 26 9 61 18 79 10 20 16 58 16 100 0 45 4 69 13 72 9 3 9 9 1 23 -11 18 -2 264 12 324 l6 25 18 -25 c10 -14 21 -22 24 -19 11 11 -7 47 -30 59 -33 18 -32 50 1 50 14 0 25 -4 25 -10z m726 -1034 c43 -40 46 -46 29 -52 -11 -4 -28 -13 -37 -21 -12 -11 -21 -12 -37 -4 -36 20 -70 14 -77 -13 -3 -14 -14 -32 -25 -42 -16 -15 -19 -15 -25 -1 -9 24 -96 11 -117 -17 -6 -8 -10 -7 -14 2 -2 7 -11 19 -20 27 -8 8 -11 19 -8 25 3 5 0 10 -7 10 -7 0 -2 6 12 13 14 7 28 9 31 5 6 -10 39 0 39 12 0 11 57 30 90 30 16 0 46 14 71 34 24 19 45 35 45 35 1 1 23 -19 50 -43z m-1036 -67 c27 -8 45 -21 50 -35 7 -17 14 -21 30 -17 12 3 24 12 27 19 6 16 53 19 53 4 0 -6 33 -10 79 -10 44 0 82 -4 86 -10 13 -21 -19 -50 -56 -50 -40 0 -79 -30 -79 -61 0 -15 -6 -20 -22 -17 -18 2 -23 10 -23 33 0 40 -40 60 -102 50 -32 -5 -46 -12 -53 -28 -5 -12 -9 -16 -9 -8 -1 7 -7 11 -16 7 -10 -3 -15 1 -15 13 0 10 -7 24 -15 31 -11 9 -12 16 -2 31 10 16 9 21 -2 28 -9 6 -10 11 -2 15 6 4 8 12 5 18 -5 7 -2 9 8 5 9 -3 35 -11 58 -18z m1141 -469 c22 -92 10 -125 -28 -80 -10 11 -21 20 -25 20 -25 0 -64 51 -79 102 l-8 29 62 -3 62 -3 16 -65z" id="svg_2"/>
</g><polyline fill="none" stroke="#222222" stroke-width="2" stroke-linejoin="round" stroke-dashoffset="" fill-rule="nonzero" marker-start="" marker-mid="" marker-end="" id="svg_3" points="143.8077069725516,122.55385628310928 144.57693776999758,121.78462548566327 144.57693776999758,121.01539468821728 145.34616856744356,120.2461638907713 146.11539936488958,119.47693309332531 146.88463016233555,118.70770229587933 147.65386095978153,117.93847149843333 148.42309175722755,117.16924070098737 149.19232255467352,117.16924070098737 149.9615533521195,117.16924070098737 150.73078414956547,117.16924070098737 151.5000149470115,117.16924070098737 152.26924574445746,117.16924070098737 153.80770733934946,117.93847149843333 154.57693813679543,117.93847149843333 156.11539973168738,118.70770229587933 156.8846305291334,119.47693309332531 157.65386132657937,120.2461638907713 157.65386132657937,121.01539468821728 158.42309212402535,121.78462548566327 158.42309212402535,122.55385628310928 " style="color: rgb(0, 0, 0);"/><polyline fill="none" stroke="#222222" stroke-width="2" stroke-linejoin="round" stroke-dashoffset="" fill-rule="nonzero" marker-start="" marker-mid="" marker-end="" id="svg_4" points="174.03846522217862,120.86155503388777 174.80769601962464,120.86155503388777 174.80769601962464,120.09232423644178 175.5769268170706,119.32309343899581 176.34615761451658,118.5538626415498 177.1153884119626,117.78463184410384 178.65385000685455,117.01540104665783 179.42308080430053,116.24617024921184 181.7307731966385,115.47693945176586 182.50000399408447,115.47693945176586 182.50000399408447,115.47693945176586 183.2692347915305,115.47693945176586 184.03846558897646,115.47693945176586 184.80769638642244,115.47693945176586 185.57692718386846,115.47693945176586 186.34615798131443,116.24617024921184 187.1153887787604,117.01540104665783 187.88461957620638,117.78463184410384 188.6538503736524,119.32309343899581 188.6538503736524,120.86155503388777 188.6538503736524,120.86155503388777 189.42308117109837,121.63078583133375 " style="color: rgb(0, 0, 0);"/></g></svg>